<?xml version="1.0" encoding="utf-8"?>
<!-- Generator: Adobe Illustrator 18.1.1, SVG Export Plug-In . SVG Version: 6.00 Build 0)  -->
<!DOCTYPE svg PUBLIC "-//W3C//DTD SVG 1.1//EN" "http://www.w3.org/Graphics/SVG/1.1/DTD/svg11.dtd">
<svg version="1.1" id="Layer_1" xmlns="http://www.w3.org/2000/svg" xmlns:xlink="http://www.w3.org/1999/xlink" x="0px" y="0px"
	 width="960px" height="560px" viewBox="0 0 960 560" style="enable-background:new 0 0 960 560;" xml:space="preserve">
<style type="text/css">
	.st0{fill:#512200;stroke:#512200;stroke-miterlimit:10;}
</style>
<g>
	<g>
		<path class="st0" d="M467.3,215.7c0.3,1.3,0.5,2.6,0.5,4.1c0,0.2,0,0.3,0,0.5l1.6,0.6l1.3-1.1l1,1.2l-2,1.7l-2.1-0.9
			c-0.2,1.9-0.8,3.7-1.6,5.2l0.3-0.4l1.6,0.9l1.5-0.9l0.8,1.4l-2.2,1.4l-2.5-1.5c-1.9,3.1-4.9,5.1-8.2,5.1c-3.3,0-6.3-2-8.2-5
			l-2.4,1.5l-2.2-1.4l0.8-1.4l1.5,0.9l1.6-0.9l0.1,0.2c-0.7-1.5-1.2-3.1-1.5-4.9l-2,0.8l-2-1.7l1-1.2l1.3,1.1l1.5-0.6
			c0-0.2,0-0.3,0-0.5c0-1.4,0.2-2.8,0.5-4.1l-2.6-0.1l-1.1-2.4l1.4-0.7l0.8,1.6l1.8,0.1l0,0.5c1.1-3.3,3.2-5.9,5.8-7.3
			c0.1-1,0.9-1.8,1.9-1.8h4.4c1,0,1.9,0.9,1.9,1.9c0,0,0,0.1,0,0.1c2.5,1.4,4.5,4,5.5,7.2l0-0.7l1.8-0.1l0.8-1.6l1.4,0.7l-1.1,2.4
			L467.3,215.7z"/>
		<polygon class="st0" points="462.6,203.9 462.4,204.5 462.1,204.6 461.4,204.8 460.8,205.2 460.1,205.6 460.1,205.2 460.9,204.5 
			461.6,204.3 462.2,203.9 462.5,203.2 463.1,203 462.9,203.6 		"/>
		<polygon class="st0" points="453.6,204.8 452.9,204.6 452.6,204.5 452.4,203.9 452.1,203.6 451.9,203 452.5,203.2 452.9,203.9 
			453.4,204.3 454.1,204.5 455,205.2 455,205.6 454.2,205.2 		"/>
	</g>
</g>
<g>
</g>
<g>
</g>
<g>
</g>
<g>
</g>
<g>
</g>
<g>
</g>
<g>
</g>
<g>
</g>
<g>
</g>
<g>
</g>
<g>
</g>
<g>
</g>
<g>
</g>
<g>
</g>
<g>
</g>
</svg>
