<?xml version="1.0" encoding="utf-8"?>
<!-- Generator: Adobe Illustrator 18.1.1, SVG Export Plug-In . SVG Version: 6.00 Build 0)  -->
<!DOCTYPE svg PUBLIC "-//W3C//DTD SVG 1.1//EN" "http://www.w3.org/Graphics/SVG/1.1/DTD/svg11.dtd">
<svg version="1.1" id="Layer_1" xmlns="http://www.w3.org/2000/svg" xmlns:xlink="http://www.w3.org/1999/xlink" x="0px" y="0px"
	 width="960px" height="560px" viewBox="0 0 960 560" style="enable-background:new 0 0 960 560;" xml:space="preserve">
<style type="text/css">
	.st0{fill:#512200;stroke:#512200;stroke-miterlimit:10;}
</style>
<g>
	<g>
		<path class="st0" d="M482.4,253c0.3,1.2,0.5,2.4,0.5,3.7c0,0.2,0,0.3,0,0.5l1.6,0.6l1.3-1.1l1,1.1l-2,1.6l-2.1-0.8
			c-0.2,1.8-0.8,3.4-1.6,4.8l0.3-0.4l1.6,0.8l1.5-0.9l0.8,1.3l-2.2,1.3l-2.4-1.4c-1.9,2.8-4.9,4.7-8.2,4.7c-3.3,0-6.3-1.8-8.2-4.6
			l-2.4,1.3l-2.2-1.3l0.8-1.3l1.5,0.9l1.6-0.8l0.1,0.1c-0.7-1.4-1.2-2.9-1.5-4.5l-2,0.8l-2-1.6l1-1.1l1.3,1.1l1.5-0.6
			c0-0.2,0-0.3,0-0.5c0-1.3,0.2-2.6,0.5-3.7l-2.6-0.1l-1.1-2.2l1.4-0.7l0.8,1.5l1.8,0.1l0,0.5c1.1-3,3.2-5.5,5.8-6.7
			c0-0.9,0.9-1.7,1.9-1.7h4.4c1,0,1.9,0.8,1.9,1.8c0,0,0,0.1,0,0.1c2.5,1.3,4.4,3.7,5.4,6.6l0-0.7l1.8-0.1l0.8-1.5l1.4,0.7l-1.1,2.2
			L482.4,253z"/>
		<polygon class="st0" points="477.7,242.1 477.5,242.7 477.2,242.8 476.5,243 476,243.3 475.2,243.7 475.2,243.3 476.1,242.7 
			476.7,242.5 477.3,242.1 477.6,241.5 478.3,241.3 478.1,241.9 		"/>
		<polygon class="st0" points="468.8,243 468.2,242.8 467.8,242.7 467.6,242.1 467.3,241.9 467.1,241.3 467.7,241.5 468.1,242.1 
			468.6,242.5 469.3,242.7 470.2,243.3 470.2,243.7 469.4,243.3 		"/>
	</g>
</g>
<g>
</g>
<g>
</g>
<g>
</g>
<g>
</g>
<g>
</g>
<g>
</g>
<g>
</g>
<g>
</g>
<g>
</g>
<g>
</g>
<g>
</g>
<g>
</g>
<g>
</g>
<g>
</g>
<g>
</g>
</svg>
